# xmcd CD database file
#
# Track frame offsets:
#	150
#	15081
#	32992
#	47564
#	58724
#	70130
#	82475
#	91689
#	106619
#	119939
#	135300
#	147012
#	157173
#	169121
#	184857
#
# Disc length: 2622 seconds
#
# Revision: 1
# Processed by: cddbd v1.5.2PL0 Copyright (c) Steve Scherf et al.
# Submitted via: CDex 1.70beta2
#
DISCID=c80a3c0f
DTITLE=Various Artist - Rhythm and Blues - CD 2
DYEAR=2007
DGENRE=Blues
TTITLE0=Leadbelly/In New Orleans
TTITLE1=Howlin' Wolf/Goin' Down Slow
TTITLE2=Jimmy Witherspoon/Garfield Avenue
TTITLE3=Little Milton/Just A Little Bit
TTITLE4=Sonny Boy Williamson/Your Funeral My Trial
TTITLE5=Elmore James/Dust My Broom
TTITLE6=Smokey Hogg/Good Morning Little School Girl
TTITLE7=Gatemouth Moore/If I Can't Have That Woman
TTITLE8=Floyd Dixon/Mean Mistreatin' Blues
TTITLE9=Roy Milton/My Own Careless Love
TTITLE10=Robert Johnson/If I Had Possesion Over Judgement Day
TTITLE11=Otis Rush/I Can't Stop Baby
TTITLE12=Memphis Slim/Rockin' The Pad
TTITLE13=Charles Brown/Trouble's My Middle Name
TTITLE14=Little Willie Littlefield/Gonna Hit The Road Blues
EXTD=YEAR: 2007
EXTT0=
EXTT1=
EXTT2=
EXTT3=
EXTT4=
EXTT5=
EXTT6=
EXTT7=
EXTT8=
EXTT9=
EXTT10=
EXTT11=
EXTT12=
EXTT13=
EXTT14=
PLAYORDER=
